<svg xmlns="http://www.w3.org/2000/svg" width="1354" height="600.073" viewBox="0 0 1354 600.073">
  <g id="Path_18" data-name="Path 18" transform="translate(0 59.073)" fill="#fff">
    <path d="M 1353.5 540.4998779296875 L 0.5 540.4998779296875 L 0.5 -18.13161849975586 L 68.91999816894531 -18.13161849975586 L 69.41999816894531 -18.13161849975586 L 69.41999816894531 -18.63161849975586 L 69.41999816894531 -57.7547721862793 L 104.3993301391602 -18.29995155334473 L 104.5485000610352 -18.13161849975586 L 104.7734985351562 -18.13161849975586 L 1353.5 -18.13161849975586 L 1353.5 540.4998779296875 Z" stroke="none"/>
    <path d="M 69.9197998046875 -56.43707275390625 L 69.9197998046875 -17.63162231445312 L 1 -17.63162231445312 L 1 539.9998779296875 L 1353 539.9998779296875 L 1353 -17.63162231445312 L 104.323486328125 -17.63162231445312 L 69.9197998046875 -56.43707275390625 M 68.9197998046875 -59.07244873046875 L 104.7733154296875 -18.63162231445312 L 1354 -18.63162231445312 L 1354 540.9998779296875 L 0 540.9998779296875 L 0 -18.63162231445312 L 68.9197998046875 -18.63162231445312 L 68.9197998046875 -59.07244873046875 Z" stroke="none" fill="#707070"/>
  </g>
</svg>
